<?xml version="1.0" standalone="no"?><!DOCTYPE svg PUBLIC "-//W3C//DTD SVG 1.1//EN" "http://www.w3.org/Graphics/SVG/1.1/DTD/svg11.dtd"><svg t="1624017911734" class="icon" viewBox="0 0 1024 1024" version="1.1" xmlns="http://www.w3.org/2000/svg" p-id="3514" xmlns:xlink="http://www.w3.org/1999/xlink" width="200" height="200"><defs><style type="text/css"></style></defs><path d="M897.1776 712.6528c-4.096-87.6032-76.2368-156.5696-163.9424-156.7744-31.7952 0-86.0672-0.256-127.3344-0.3584V456.704h31.8976c0.6144 0 1.1776-0.1536 1.7408-0.2048 32.0512-0.1024 65.9968-0.2048 89.6-0.256 1.28 0.256 2.56 0.4096 3.84 0.4096 90.5216 0.1536 164.096-73.0112 164.4032-163.584 0-2.304 0-4.608-0.1536-6.912-3.7376-90.6752-80.2304-161.1776-170.9056-157.44-88.1152 3.6352-157.696 76.1344-157.5936 164.352v126.5152h-101.888v-31.9488c-0.0512-0.6656-0.1024-1.3824-0.2048-2.048-0.1024-30.9248-0.2048-62.464-0.256-88.6272 0.3072-1.28 0.4608-2.6112 0.4608-3.9936 0.4608-90.7776-72.704-164.7616-163.4816-165.2224-90.7776-0.4608-164.7616 72.704-165.2224 163.4816v1.7408c0.3072 90.5216 73.8304 163.6864 164.352 163.584h127.1296v98.8672c-41.216 0.1024-95.5392 0.3584-127.3344 0.3584-90.8288 0.2048-164.3008 74.0352-164.096 164.9152v0.7168c0 24.32 5.4272 48.2816 15.9232 70.1952l0.256 0.5632 0.256 0.512c39.7824 81.6128 138.24 115.5072 219.8528 75.7248a164.45952 164.45952 0 0 0 92.3648-147.0464v-126.5152h101.9392v31.8464c0 0.5632 0.1024 1.1264 0.1536 1.7408 0.1024 31.2832 0.2048 63.0784 0.256 89.1392-0.256 1.2288-0.4096 2.5088-0.4096 3.7888 0 90.7776 73.5744 164.3008 164.352 164.3008 90.7264 0 164.3008-73.5744 164.3008-164.3008 0-2.7648-0.0512-5.7344-0.256-8.704z" fill="#9fc6ff" p-id="3515"></path></svg>